<svg width="302" height="227" viewBox="0 0 302 227" fill="none" xmlns="http://www.w3.org/2000/svg">
<path d="M31.5 226V194.357H270.5V226V226.5H271H301H301.5V226V129.571C301.5 115.368 295.657 102.605 286.5 93.6813V49.2143C286.5 22.4533 266.058 0.5 241 0.5H181C169.474 0.5 158.99 5.24276 151 12.8424C143.01 5.24276 132.526 0.5 121 0.5H61C35.9419 0.5 15.5 22.4533 15.5 49.2143V93.6813C6.34305 102.605 0.5 115.368 0.5 129.571V226V226.5H1H31H31.5V226ZM166.5 49.2143C166.5 40.6181 173.058 33.6429 181 33.6429H241C248.942 33.6429 255.5 40.6181 255.5 49.2143V80.8571H166.5V49.2143ZM46.5 49.2143C46.5 40.6181 53.0581 33.6429 61 33.6429H121C128.942 33.6429 135.5 40.6181 135.5 49.2143V80.8571H46.5V49.2143ZM31.5 161.214V129.571C31.5 120.975 38.0581 114 46 114H256C263.942 114 270.5 120.975 270.5 129.571V161.214H31.5Z" fill="#353535" stroke="black"/>
</svg>
