<svg width="250" height="260" viewBox="0 0 250 260" fill="none" xmlns="http://www.w3.org/2000/svg">
<path d="M125 212.727C127.472 212.727 129.889 212.034 131.945 210.736C134 209.437 135.602 207.591 136.548 205.432C137.495 203.272 137.742 200.896 137.26 198.603C136.778 196.311 135.587 194.205 133.839 192.552C132.091 190.9 129.863 189.774 127.439 189.318C125.014 188.862 122.501 189.096 120.216 189.991C117.932 190.885 115.98 192.4 114.607 194.343C113.233 196.287 112.5 198.572 112.5 200.909C112.5 204.043 113.817 207.049 116.161 209.266C118.505 211.482 121.685 212.727 125 212.727ZM187.5 212.727C189.972 212.727 192.389 212.034 194.445 210.736C196.5 209.437 198.102 207.591 199.048 205.432C199.995 203.272 200.242 200.896 199.76 198.603C199.278 196.311 198.087 194.205 196.339 192.552C194.591 190.9 192.363 189.774 189.939 189.318C187.514 188.862 185.001 189.096 182.716 189.991C180.432 190.885 178.48 192.4 177.107 194.343C175.733 196.287 175 198.572 175 200.909C175 204.043 176.317 207.049 178.661 209.266C181.005 211.482 184.185 212.727 187.5 212.727ZM187.5 165.455C189.972 165.455 192.389 164.761 194.445 163.463C196.5 162.164 198.102 160.318 199.048 158.159C199.995 156 200.242 153.623 199.76 151.331C199.278 149.038 198.087 146.932 196.339 145.28C194.591 143.627 192.363 142.501 189.939 142.045C187.514 141.589 185.001 141.823 182.716 142.718C180.432 143.612 178.48 145.127 177.107 147.071C175.733 149.014 175 151.299 175 153.636C175 156.771 176.317 159.777 178.661 161.993C181.005 164.209 184.185 165.455 187.5 165.455ZM125 165.455C127.472 165.455 129.889 164.761 131.945 163.463C134 162.164 135.602 160.318 136.548 158.159C137.495 156 137.742 153.623 137.26 151.331C136.778 149.038 135.587 146.932 133.839 145.28C132.091 143.627 129.863 142.501 127.439 142.045C125.014 141.589 122.501 141.823 120.216 142.718C117.932 143.612 115.98 145.127 114.607 147.071C113.233 149.014 112.5 151.299 112.5 153.636C112.5 156.771 113.817 159.777 116.161 161.993C118.505 164.209 121.685 165.455 125 165.455ZM212.5 23.6364H200V11.8182C200 8.68381 198.683 5.6778 196.339 3.46146C193.995 1.24513 190.815 0 187.5 0C184.185 0 181.005 1.24513 178.661 3.46146C176.317 5.6778 175 8.68381 175 11.8182V23.6364H75V11.8182C75 8.68381 73.683 5.6778 71.3388 3.46146C68.9946 1.24513 65.8152 0 62.5 0C59.1848 0 56.0054 1.24513 53.6612 3.46146C51.317 5.6778 50 8.68381 50 11.8182V23.6364H37.5C27.5544 23.6364 18.0161 27.3717 10.9835 34.0208C3.95088 40.6698 0 49.6878 0 59.0909V224.545C0 233.949 3.95088 242.967 10.9835 249.616C18.0161 256.265 27.5544 260 37.5 260H212.5C222.446 260 231.984 256.265 239.017 249.616C246.049 242.967 250 233.949 250 224.545V59.0909C250 49.6878 246.049 40.6698 239.017 34.0208C231.984 27.3717 222.446 23.6364 212.5 23.6364ZM225 224.545C225 227.68 223.683 230.686 221.339 232.902C218.995 235.119 215.815 236.364 212.5 236.364H37.5C34.1848 236.364 31.0054 235.119 28.6612 232.902C26.317 230.686 25 227.68 25 224.545V118.182H225V224.545ZM225 94.5455H25V59.0909C25 55.9565 26.317 52.9505 28.6612 50.7342C31.0054 48.5179 34.1848 47.2727 37.5 47.2727H50V59.0909C50 62.2253 51.317 65.2313 53.6612 67.4476C56.0054 69.664 59.1848 70.9091 62.5 70.9091C65.8152 70.9091 68.9946 69.664 71.3388 67.4476C73.683 65.2313 75 62.2253 75 59.0909V47.2727H175V59.0909C175 62.2253 176.317 65.2313 178.661 67.4476C181.005 69.664 184.185 70.9091 187.5 70.9091C190.815 70.9091 193.995 69.664 196.339 67.4476C198.683 65.2313 200 62.2253 200 59.0909V47.2727H212.5C215.815 47.2727 218.995 48.5179 221.339 50.7342C223.683 52.9505 225 55.9565 225 59.0909V94.5455ZM62.5 165.455C64.9723 165.455 67.389 164.761 69.4446 163.463C71.5002 162.164 73.1024 160.318 74.0485 158.159C74.9946 156 75.2421 153.623 74.7598 151.331C74.2775 149.038 73.087 146.932 71.3388 145.28C69.5907 143.627 67.3634 142.501 64.9386 142.045C62.5139 141.589 60.0005 141.823 57.7165 142.718C55.4324 143.612 53.4801 145.127 52.1066 147.071C50.7331 149.014 50 151.299 50 153.636C50 156.771 51.317 159.777 53.6612 161.993C56.0054 164.209 59.1848 165.455 62.5 165.455ZM62.5 212.727C64.9723 212.727 67.389 212.034 69.4446 210.736C71.5002 209.437 73.1024 207.591 74.0485 205.432C74.9946 203.272 75.2421 200.896 74.7598 198.603C74.2775 196.311 73.087 194.205 71.3388 192.552C69.5907 190.9 67.3634 189.774 64.9386 189.318C62.5139 188.862 60.0005 189.096 57.7165 189.991C55.4324 190.885 53.4801 192.4 52.1066 194.343C50.7331 196.287 50 198.572 50 200.909C50 204.043 51.317 207.049 53.6612 209.266C56.0054 211.482 59.1848 212.727 62.5 212.727Z" fill="black"/>
</svg>
