<svg width="315" height="235" viewBox="0 0 315 235" fill="none" xmlns="http://www.w3.org/2000/svg">
<path fill-rule="evenodd" clip-rule="evenodd" d="M105 178.713H82.299L75.117 197.963L71.799 206.856H31.5V150.944C41.916 153.365 56.973 155.26 78.75 155.26C82.9272 155.26 86.9332 153.777 89.8869 151.138C92.8406 148.499 94.5 144.92 94.5 141.188C94.5 137.456 92.8406 133.877 89.8869 131.238C86.9332 128.599 82.9272 127.116 78.75 127.116C56.217 127.116 43.428 124.865 36.792 123.045C35.333 122.655 33.9023 122.185 32.508 121.638C34.1381 115.456 37.6652 109.803 42.693 105.314C44.247 103.945 45.738 102.5 47.187 101.036C79.212 109.161 118.65 113.044 157.5 113.044C196.329 113.044 235.788 109.161 267.813 101.036C269.262 102.519 270.753 103.945 272.307 105.314C277.368 109.855 280.875 115.521 282.492 121.638C281.547 122.013 280.161 122.519 278.208 123.045C271.572 124.865 258.783 127.116 236.25 127.116C232.073 127.116 228.067 128.599 225.113 131.238C222.159 133.877 220.5 137.456 220.5 141.188C220.5 144.92 222.159 148.499 225.113 151.138C228.067 153.777 232.073 155.26 236.25 155.26C258.027 155.26 273.084 153.365 283.5 150.944V206.856H243.201L239.883 197.963L232.701 178.713H105ZM250.404 76.0449C223.524 81.8612 190.764 84.9007 157.5 84.9007C124.236 84.9007 91.476 81.8612 64.596 76.0449C65.247 74.6377 65.856 73.2305 66.444 71.8046L75.852 48.2202C79.632 38.7452 87.822 33.0977 96.012 32.0283C136.791 26.8376 178.188 26.8376 218.967 32.0283C227.199 33.0977 235.347 38.7452 239.127 48.2202L248.577 71.8046C249.144 73.2305 249.753 74.6377 250.404 76.0449ZM215.712 222.167L210 206.856H105L99.288 222.167C97.8947 225.904 95.2199 229.155 91.643 231.458C88.066 233.762 83.7683 235.001 79.359 235H21C15.4305 235 10.089 233.023 6.15076 229.505C2.21249 225.986 0 221.214 0 216.238V129.461C0 112.951 7.35 97.0963 20.412 85.4261C23.7941 82.4092 26.82 79.0895 29.442 75.5195H15.75C11.5728 75.5195 7.56677 74.037 4.61307 71.398C1.65937 68.759 0 65.1798 0 61.4477C0 57.7157 1.65937 54.1364 4.61307 51.4975C7.56677 48.8585 11.5728 47.3759 15.75 47.3759H42.756L46.2 38.7452C53.403 20.7333 70.308 6.92418 91.497 4.18487C135.277 -1.39496 179.723 -1.39496 223.503 4.18487C244.692 6.92418 261.597 20.7333 268.8 38.764L272.244 47.3759H299.25C303.427 47.3759 307.433 48.8585 310.387 51.4975C313.341 54.1364 315 57.7157 315 61.4477C315 65.1798 313.341 68.759 310.387 71.398C307.433 74.037 303.427 75.5195 299.25 75.5195H285.579C288.183 79.0844 291.207 82.4053 294.588 85.4261C307.657 97.1065 314.999 112.946 315 129.461V216.238C315 221.214 312.788 225.986 308.849 229.505C304.911 233.023 299.57 235 294 235H235.62C231.214 234.997 226.921 233.756 223.349 231.453C219.776 229.15 217.104 225.901 215.712 222.167Z" fill="#353535"/>
</svg>
