<svg width="250" height="250" viewBox="0 0 250 250" fill="none" xmlns="http://www.w3.org/2000/svg">
<path d="M137.5 127.187L165.625 155.312C167.917 157.604 169.062 160.471 169.062 163.912C169.062 167.354 167.917 170.321 165.625 172.812C163.125 175.312 160.158 176.562 156.725 176.562C153.292 176.562 150.321 175.312 147.812 172.812L116.25 141.25C115 140 114.062 138.596 113.437 137.037C112.812 135.479 112.5 133.862 112.5 132.187V87.5C112.5 83.9583 113.7 80.9917 116.1 78.6C118.5 76.2083 121.467 75.0083 125 75C128.542 75 131.512 76.2 133.912 78.6C136.312 81 137.508 83.9667 137.5 87.5V127.187ZM125 50C121.458 50 118.492 48.8 116.1 46.4C113.708 44 112.508 41.0333 112.5 37.5V25H137.5V37.5C137.5 41.0417 136.3 44.0125 133.9 46.4125C131.5 48.8125 128.533 50.0083 125 50ZM200 125C200 121.458 201.2 118.492 203.6 116.1C206 113.708 208.967 112.508 212.5 112.5H225V137.5H212.5C208.958 137.5 205.992 136.3 203.6 133.9C201.208 131.5 200.008 128.533 200 125ZM125 200C128.542 200 131.512 201.2 133.912 203.6C136.312 206 137.508 208.967 137.5 212.5V225H112.5V212.5C112.5 208.958 113.7 205.992 116.1 203.6C118.5 201.208 121.467 200.008 125 200ZM50 125C50 128.542 48.8 131.512 46.4 133.912C44 136.312 41.0333 137.508 37.5 137.5H25V112.5H37.5C41.0417 112.5 44.0125 113.7 46.4125 116.1C48.8125 118.5 50.0083 121.467 50 125ZM125 250C107.708 250 91.4583 246.717 76.25 240.15C61.0417 233.583 47.8125 224.679 36.5625 213.437C25.3125 202.187 16.4083 188.958 9.85 173.75C3.29167 158.542 0.00833333 142.292 0 125C0 107.708 3.28333 91.4583 9.85 76.25C16.4167 61.0417 25.3208 47.8125 36.5625 36.5625C47.8125 25.3125 61.0417 16.4083 76.25 9.85C91.4583 3.29167 107.708 0.00833333 125 0C142.292 0 158.542 3.28333 173.75 9.85C188.958 16.4167 202.187 25.3208 213.437 36.5625C224.687 47.8125 233.596 61.0417 240.162 76.25C246.729 91.4583 250.008 107.708 250 125C250 142.292 246.717 158.542 240.15 173.75C233.583 188.958 224.679 202.187 213.437 213.437C202.187 224.687 188.958 233.596 173.75 240.162C158.542 246.729 142.292 250.008 125 250ZM225 125C225 97.0833 215.312 73.4375 195.937 54.0625C176.562 34.6875 152.917 25 125 25C97.0833 25 73.4375 34.6875 54.0625 54.0625C34.6875 73.4375 25 97.0833 25 125C25 152.917 34.6875 176.562 54.0625 195.937C73.4375 215.312 97.0833 225 125 225C152.917 225 176.562 215.312 195.937 195.937C215.312 176.562 225 152.917 225 125Z" fill="#353535"/>
</svg>
