<svg width="350" height="250" viewBox="0 0 350 250" fill="none" xmlns="http://www.w3.org/2000/svg">
<path d="M35 93.75V218.75H315V93.75L175 140.625L35 93.75ZM35 31.25V62.5L175 109.375L315 62.5V31.25H35ZM35 0H315C324.283 0 333.185 3.2924 339.749 9.15291C346.313 15.0134 350 22.962 350 31.25V218.75C350 227.038 346.313 234.987 339.749 240.847C333.185 246.708 324.283 250 315 250H35C25.7174 250 16.815 246.708 10.2513 240.847C3.68749 234.987 0 227.038 0 218.75V31.25C0 22.962 3.68749 15.0134 10.2513 9.15291C16.815 3.2924 25.7174 0 35 0Z" fill="black"/>
</svg>
