<svg width="284" height="312" viewBox="0 0 284 312" fill="none" xmlns="http://www.w3.org/2000/svg">
<path d="M3 33.5833C3 25.4721 6.08169 17.6931 11.5671 11.9576C17.0526 6.22216 24.4924 3 32.25 3H122.515C130.272 3.00173 137.711 6.22503 143.195 11.9609L217.929 90.086C216.379 91.3519 214.904 92.7154 213.512 94.1689L183.707 125.333H149.25C141.492 125.333 134.053 122.111 128.567 116.376C123.082 110.64 120 102.861 120 94.75V25.9375H32.25C30.3106 25.9375 28.4506 26.743 27.0793 28.1769C25.7079 29.6108 24.9375 31.5555 24.9375 33.5833V278.25C24.9375 280.278 25.7079 282.223 27.0793 283.656C28.4506 285.09 30.3106 285.896 32.25 285.896H207.75C209.689 285.896 211.549 285.09 212.921 283.656C214.292 282.223 215.062 280.278 215.062 278.25V234.669L237 211.731V278.25C237 286.361 233.918 294.14 228.433 299.876C222.947 305.611 215.508 308.833 207.75 308.833H32.25C24.4924 308.833 17.0526 305.611 11.5671 299.876C6.08169 294.14 3 286.361 3 278.25V33.5833ZM149.25 102.396H198.682L141.937 43.0642V94.75C141.937 96.7778 142.708 98.7226 144.079 100.156C145.451 101.59 147.311 102.396 149.25 102.396ZM137.506 195.247L223.837 104.98C226.924 101.652 230.613 98.9982 234.69 97.1747C238.767 95.3512 243.15 94.3938 247.585 94.3584C252.019 94.3231 256.415 95.2103 260.518 96.9685C264.621 98.7268 268.349 101.321 271.484 104.6C274.619 107.879 277.099 111.777 278.779 116.068C280.459 120.358 281.307 124.956 281.271 129.592C281.236 134.228 280.319 138.811 278.574 143.073C276.829 147.335 274.29 151.192 271.105 154.418L184.789 244.67C179.755 249.937 173.446 253.674 166.537 255.481L139.773 262.469C138.094 262.922 136.355 263.088 134.625 262.958H57.8437C54.9347 262.958 52.1447 261.75 50.0877 259.599C48.0306 257.448 46.875 254.531 46.875 251.49C46.875 248.448 48.0306 245.531 50.0877 243.38C52.1447 241.229 54.9347 240.021 57.8437 240.021H121.038L127.181 214.331C128.907 207.098 132.475 200.507 137.506 195.247Z" fill="#353535" stroke="black" stroke-width="5"/>
</svg>
