<svg width="270" height="270" viewBox="0 0 270 270" fill="none" xmlns="http://www.w3.org/2000/svg">
<path d="M135 260C204.037 260 260 204.037 260 135C260 65.9625 204.037 10 135 10C65.9625 10 10 65.9625 10 135C10 204.037 65.9625 260 135 260Z" stroke="black" stroke-width="20" stroke-linecap="round" stroke-linejoin="round"/>
<path d="M178.75 28.75V135" stroke="black" stroke-width="20" stroke-linecap="round" stroke-linejoin="round"/>
<path d="M88.9749 26.475L177.362 114.862" stroke="black" stroke-width="20" stroke-linecap="round" stroke-linejoin="round"/>
<path d="M28.75 91.25H135" stroke="black" stroke-width="20" stroke-linecap="round" stroke-linejoin="round"/>
<path d="M112.275 95.225L23.8875 183.612" stroke="black" stroke-width="20" stroke-linecap="round" stroke-linejoin="round"/>
<path d="M91.25 141.25V247.5" stroke="black" stroke-width="20" stroke-linecap="round" stroke-linejoin="round"/>
<path d="M95.2249 157.725L183.612 246.112" stroke="black" stroke-width="20" stroke-linecap="round" stroke-linejoin="round"/>
<path d="M135 178.75H247.5" stroke="black" stroke-width="20" stroke-linecap="round" stroke-linejoin="round"/>
<path d="M249.775 88.975L161.388 177.362M135 178.75C140.745 178.75 146.434 177.618 151.742 175.42C157.05 173.221 161.873 169.998 165.936 165.936C169.998 161.873 173.221 157.05 175.42 151.742C177.618 146.434 178.75 140.745 178.75 135C178.75 129.255 177.618 123.566 175.42 118.258C173.221 112.95 169.998 108.127 165.936 104.064C161.873 100.001 157.05 96.7789 151.742 94.5802C146.434 92.3816 140.745 91.25 135 91.25C123.397 91.25 112.269 95.8593 104.064 104.064C95.8594 112.269 91.25 123.397 91.25 135C91.25 146.603 95.8594 157.731 104.064 165.936C112.269 174.141 123.397 178.75 135 178.75Z" stroke="black" stroke-width="20" stroke-linecap="round" stroke-linejoin="round"/>
</svg>
