<svg width="250" height="250" viewBox="0 0 250 250" fill="none" xmlns="http://www.w3.org/2000/svg">
<path d="M81.4657 131.024C78.9908 131.024 76.5715 131.757 74.5137 133.13C72.4559 134.503 70.852 136.455 69.9049 138.739C68.9578 141.022 68.71 143.535 69.1928 145.959C69.6757 148.384 70.8674 150.61 72.6174 152.358C74.3675 154.106 76.5971 155.296 79.0245 155.779C81.4518 156.261 83.9678 156.013 86.2543 155.067C88.5408 154.121 90.4951 152.52 91.8701 150.464C93.2451 148.409 93.979 145.993 93.979 143.521C93.979 140.207 92.6606 137.028 90.3139 134.684C87.9672 132.34 84.7844 131.024 81.4657 131.024ZM81.4657 75.0348C78.9908 75.0348 76.5715 75.7677 74.5137 77.141C72.4559 78.5142 70.852 80.4661 69.9049 82.7497C68.9578 85.0333 68.71 87.5462 69.1928 89.9704C69.6757 92.3947 70.8674 94.6216 72.6174 96.3694C74.3675 98.1172 76.5971 99.3074 79.0245 99.7897C81.4518 100.272 83.9678 100.024 86.2543 99.0785C88.5408 98.1326 90.4951 96.5307 91.8701 94.4755C93.2451 92.4203 93.979 90.0041 93.979 87.5323C93.979 84.2177 92.6606 81.0389 90.3139 78.6952C87.9672 76.3515 84.7844 75.0348 81.4657 75.0348ZM125.137 100.03C121.818 100.03 118.636 101.347 116.289 103.69C113.942 106.034 112.624 109.213 112.624 112.527V125.025C112.624 128.339 113.942 131.518 116.289 133.862C118.636 136.206 121.818 137.522 125.137 137.522C128.456 137.522 131.639 136.206 133.985 133.862C136.332 131.518 137.65 128.339 137.65 125.025V112.527C137.65 109.213 136.332 106.034 133.985 103.69C131.639 101.347 128.456 100.03 125.137 100.03ZM231.5 82.1584C227.183 79.6778 222.416 78.0798 217.474 77.4576C212.533 76.8354 207.518 77.2013 202.719 78.5341C197.726 79.87 193.075 82.2561 189.08 85.5327L43.9258 1.67435C42.0236 0.577465 39.8657 0 37.6692 0C35.4726 0 33.3148 0.577465 31.4125 1.67435C29.4796 2.75946 27.8702 4.33803 26.7488 6.24849C25.6275 8.15895 25.0346 10.3327 25.0307 12.5472V177.139C17.6461 179.627 11.2432 184.393 6.74536 190.749C2.24748 197.106 -0.113032 204.725 0.0041619 212.507C0.000682131 222.28 3.81805 231.668 10.6431 238.671C17.4681 245.675 26.7613 249.739 36.543 250H43.8007C84.8034 249.904 125.051 238.973 160.456 218.319C195.862 197.664 225.164 168.021 245.39 132.398C250.061 123.875 251.237 113.873 248.669 104.501C246.101 95.1294 239.991 87.1189 231.625 82.1584H231.5ZM50.0573 34.1679L173.814 105.529C160.084 125.99 141.729 142.94 120.232 155.01C98.734 167.081 74.6956 173.933 50.0573 175.015V34.1679ZM223.617 120.151C205.04 152.84 177.91 179.867 145.133 198.338C112.356 216.808 75.165 226.026 37.544 225.005C34.2253 225.005 31.0425 223.688 28.6958 221.345C26.3491 219.001 25.0307 215.822 25.0307 212.507C25.0209 210.833 25.3482 209.173 25.9931 207.628C26.638 206.082 27.5873 204.681 28.7847 203.509C31.1356 201.246 34.279 199.99 37.544 200.01H43.9258C76.0564 199.997 107.607 191.463 135.353 175.28C163.099 159.097 186.044 135.846 201.844 107.903C202.603 106.532 203.641 105.335 204.891 104.388C206.141 103.441 207.575 102.766 209.101 102.404C212.256 101.539 215.625 101.943 218.486 103.529C221.357 105.07 223.513 107.67 224.494 110.774C225.476 113.878 225.206 117.242 223.742 120.151H223.617Z" fill="#353535"/>
</svg>
