<svg width="232" height="259" viewBox="0 0 232 259" fill="none" xmlns="http://www.w3.org/2000/svg">
<g filter="url(#filter0_d_85_213)">
<path fill-rule="evenodd" clip-rule="evenodd" d="M115.956 3.37268C117.957 3.37268 119.877 4.29748 121.292 5.94364C122.707 7.58979 123.502 9.82246 123.502 12.1505V24.2872L174.438 53.8976C181.823 58.1929 188.122 61.8562 192.509 65.4141C196.947 69.0306 201.626 74.2738 201.626 82.3728C201.626 90.4835 196.947 95.715 192.509 99.3315C188.122 102.889 181.823 106.553 174.438 110.848L123.502 140.458V155.638C148.96 156.375 172.103 160.893 189.601 168.009C199.161 171.906 207.452 176.752 213.479 182.557C219.466 188.315 224.125 195.946 224.125 205.262C224.125 214.578 219.466 222.209 213.479 227.967C207.442 233.772 199.171 238.618 189.601 242.515C170.393 250.333 144.361 255.003 115.956 255.003C87.5499 255.003 61.5188 250.321 42.31 242.515C32.7508 238.618 24.4696 233.772 18.4322 227.967C12.4451 222.209 7.78632 214.578 7.78632 205.262C7.78632 195.946 12.4451 188.315 18.4322 182.557C24.4696 176.752 32.7407 171.906 42.31 168.009C59.7982 160.893 82.9615 156.375 108.409 155.626V12.1505C108.409 9.82246 109.204 7.58979 110.619 5.94364C112.035 4.29748 113.954 3.37268 115.956 3.37268ZM123.502 43.9144V120.831L167.142 95.4576C175.222 90.7527 180.505 87.6629 183.866 84.9242C184.823 84.2275 185.684 83.3674 186.422 82.3728C185.682 81.3811 184.821 80.5214 183.866 79.8214C180.505 77.0827 175.222 73.9929 167.142 69.288L123.502 43.9144ZM186.593 82.7356C186.593 82.7356 186.563 82.6771 186.553 82.5835C186.603 82.6888 186.593 82.7356 186.593 82.7356ZM186.563 82.1504C186.573 82.0685 186.603 82.01 186.613 82.01C186.613 82.01 186.613 82.0451 186.563 82.1504ZM108.409 173.194C84.3098 173.943 62.8974 178.226 47.3008 184.581C38.6473 188.093 32.2074 192.083 28.0517 196.074C23.8558 200.124 22.8797 203.261 22.8797 205.262C22.8797 207.252 23.8558 210.412 28.0517 214.449C32.1974 218.429 38.6574 222.42 47.3008 225.942C64.5073 232.953 88.7876 237.447 115.956 237.447C143.124 237.447 167.404 232.953 184.611 225.942C193.264 222.431 199.704 218.44 203.86 214.449C208.056 210.4 209.032 207.263 209.032 205.262C209.032 203.272 208.056 200.112 203.86 196.074C199.714 192.095 193.254 188.104 184.611 184.581C169.014 178.226 147.602 173.931 123.502 173.194V199.41C123.502 201.738 122.707 203.971 121.292 205.617C119.877 207.263 117.957 208.188 115.956 208.188C113.954 208.188 112.035 207.263 110.619 205.617C109.204 203.971 108.409 201.738 108.409 199.41V173.194Z" fill="#353535"/>
<path fill-rule="evenodd" clip-rule="evenodd" d="M115.956 3.37268C117.957 3.37268 119.877 4.29748 121.292 5.94364C122.707 7.58979 123.502 9.82246 123.502 12.1505V24.2872L174.438 53.8976C181.823 58.1929 188.122 61.8562 192.509 65.4141C196.947 69.0306 201.626 74.2738 201.626 82.3728C201.626 90.4835 196.947 95.715 192.509 99.3315C188.122 102.889 181.823 106.553 174.438 110.848L123.502 140.458V155.638C148.96 156.375 172.103 160.893 189.601 168.009C199.161 171.906 207.452 176.752 213.479 182.557C219.466 188.315 224.125 195.946 224.125 205.262C224.125 214.578 219.466 222.209 213.479 227.967C207.442 233.772 199.171 238.618 189.601 242.515C170.393 250.333 144.361 255.003 115.956 255.003C87.5499 255.003 61.5188 250.321 42.31 242.515C32.7508 238.618 24.4696 233.772 18.4322 227.967C12.4451 222.209 7.78632 214.578 7.78632 205.262C7.78632 195.946 12.4451 188.315 18.4322 182.557C24.4696 176.752 32.7407 171.906 42.31 168.009C59.7982 160.893 82.9615 156.375 108.409 155.626V12.1505C108.409 9.82246 109.204 7.58979 110.619 5.94364C112.035 4.29748 113.954 3.37268 115.956 3.37268ZM123.502 43.9144V120.831L167.142 95.4576C175.222 90.7527 180.505 87.6629 183.866 84.9242C184.823 84.2275 185.684 83.3674 186.422 82.3728C185.682 81.3811 184.821 80.5214 183.866 79.8214C180.505 77.0827 175.222 73.9929 167.142 69.288L123.502 43.9144ZM186.593 82.7356C186.593 82.7356 186.563 82.6771 186.553 82.5835C186.603 82.6888 186.593 82.7356 186.593 82.7356ZM186.563 82.1504C186.573 82.0685 186.603 82.01 186.613 82.01C186.613 82.01 186.613 82.0451 186.563 82.1504ZM108.409 173.194C84.3098 173.943 62.8974 178.226 47.3008 184.581C38.6473 188.093 32.2074 192.083 28.0517 196.074C23.8558 200.124 22.8797 203.261 22.8797 205.262C22.8797 207.252 23.8558 210.412 28.0517 214.449C32.1974 218.429 38.6574 222.42 47.3008 225.942C64.5073 232.953 88.7876 237.447 115.956 237.447C143.124 237.447 167.404 232.953 184.611 225.942C193.264 222.431 199.704 218.44 203.86 214.449C208.056 210.4 209.032 207.263 209.032 205.262C209.032 203.272 208.056 200.112 203.86 196.074C199.714 192.095 193.254 188.104 184.611 184.581C169.014 178.226 147.602 173.931 123.502 173.194V199.41C123.502 201.738 122.707 203.971 121.292 205.617C119.877 207.263 117.957 208.188 115.956 208.188C113.954 208.188 112.035 207.263 110.619 205.617C109.204 203.971 108.409 201.738 108.409 199.41V173.194Z" fill="black" fill-opacity="0.2"/>
<path fill-rule="evenodd" clip-rule="evenodd" d="M115.956 3.37268C117.957 3.37268 119.877 4.29748 121.292 5.94364C122.707 7.58979 123.502 9.82246 123.502 12.1505V24.2872L174.438 53.8976C181.823 58.1929 188.122 61.8562 192.509 65.4141C196.947 69.0306 201.626 74.2738 201.626 82.3728C201.626 90.4835 196.947 95.715 192.509 99.3315C188.122 102.889 181.823 106.553 174.438 110.848L123.502 140.458V155.638C148.96 156.375 172.103 160.893 189.601 168.009C199.161 171.906 207.452 176.752 213.479 182.557C219.466 188.315 224.125 195.946 224.125 205.262C224.125 214.578 219.466 222.209 213.479 227.967C207.442 233.772 199.171 238.618 189.601 242.515C170.393 250.333 144.361 255.003 115.956 255.003C87.5499 255.003 61.5188 250.321 42.31 242.515C32.7508 238.618 24.4696 233.772 18.4322 227.967C12.4451 222.209 7.78632 214.578 7.78632 205.262C7.78632 195.946 12.4451 188.315 18.4322 182.557C24.4696 176.752 32.7407 171.906 42.31 168.009C59.7982 160.893 82.9615 156.375 108.409 155.626V12.1505C108.409 9.82246 109.204 7.58979 110.619 5.94364C112.035 4.29748 113.954 3.37268 115.956 3.37268ZM123.502 43.9144V120.831L167.142 95.4576C175.222 90.7527 180.505 87.6629 183.866 84.9242C184.823 84.2275 185.684 83.3674 186.422 82.3728C185.682 81.3811 184.821 80.5214 183.866 79.8214C180.505 77.0827 175.222 73.9929 167.142 69.288L123.502 43.9144ZM186.593 82.7356C186.593 82.7356 186.563 82.6771 186.553 82.5835C186.603 82.6888 186.593 82.7356 186.593 82.7356ZM186.563 82.1504C186.573 82.0685 186.603 82.01 186.613 82.01C186.613 82.01 186.613 82.0451 186.563 82.1504ZM108.409 173.194C84.3098 173.943 62.8974 178.226 47.3008 184.581C38.6473 188.093 32.2074 192.083 28.0517 196.074C23.8558 200.124 22.8797 203.261 22.8797 205.262C22.8797 207.252 23.8558 210.412 28.0517 214.449C32.1974 218.429 38.6574 222.42 47.3008 225.942C64.5073 232.953 88.7876 237.447 115.956 237.447C143.124 237.447 167.404 232.953 184.611 225.942C193.264 222.431 199.704 218.44 203.86 214.449C208.056 210.4 209.032 207.263 209.032 205.262C209.032 203.272 208.056 200.112 203.86 196.074C199.714 192.095 193.254 188.104 184.611 184.581C169.014 178.226 147.602 173.931 123.502 173.194V199.41C123.502 201.738 122.707 203.971 121.292 205.617C119.877 207.263 117.957 208.188 115.956 208.188C113.954 208.188 112.035 207.263 110.619 205.617C109.204 203.971 108.409 201.738 108.409 199.41V173.194Z" stroke="black" stroke-width="6"/>
</g>
<defs>
<filter id="filter0_d_85_213" x="0.786316" y="0.372681" width="230.339" height="265.63" filterUnits="userSpaceOnUse" color-interpolation-filters="sRGB">
<feFlood flood-opacity="0" result="BackgroundImageFix"/>
<feColorMatrix in="SourceAlpha" type="matrix" values="0 0 0 0 0 0 0 0 0 0 0 0 0 0 0 0 0 0 127 0" result="hardAlpha"/>
<feOffset dy="4"/>
<feGaussianBlur stdDeviation="2"/>
<feComposite in2="hardAlpha" operator="out"/>
<feColorMatrix type="matrix" values="0 0 0 0 0 0 0 0 0 0 0 0 0 0 0 0 0 0 0.25 0"/>
<feBlend mode="normal" in2="BackgroundImageFix" result="effect1_dropShadow_85_213"/>
<feBlend mode="normal" in="SourceGraphic" in2="effect1_dropShadow_85_213" result="shape"/>
</filter>
</defs>
</svg>
