<svg width="30" height="38" viewBox="0 0 30 38" fill="none" xmlns="http://www.w3.org/2000/svg">
<path fill-rule="evenodd" clip-rule="evenodd" d="M6.52719 16.4011C6.52719 14.1178 7.39681 11.9279 8.94475 10.3134C10.4927 8.69878 12.5921 7.79172 14.7813 7.79172C16.9704 7.79172 19.0698 8.69878 20.6178 10.3134C22.1657 11.9279 23.0353 14.1178 23.0353 16.4011C23.0353 18.6845 22.1657 20.8743 20.6178 22.4889C19.0698 24.1035 16.9704 25.0106 14.7813 25.0106C12.5921 25.0106 10.4927 24.1035 8.94475 22.4889C7.39681 20.8743 6.52719 18.6845 6.52719 16.4011ZM14.7813 10.5105C13.2834 10.5105 11.847 11.1311 10.7879 12.2358C9.72874 13.3405 9.13374 14.8388 9.13374 16.4011C9.13374 17.9634 9.72874 19.4618 10.7879 20.5665C11.847 21.6712 13.2834 22.2918 14.7813 22.2918C16.2791 22.2918 17.7155 21.6712 18.7746 20.5665C19.8338 19.4618 20.4288 17.9634 20.4288 16.4011C20.4288 14.8388 19.8338 13.3405 18.7746 12.2358C17.7155 11.1311 16.2791 10.5105 14.7813 10.5105Z" fill="#0F6F24"/>
<path fill-rule="evenodd" clip-rule="evenodd" d="M0.0525406 14.3294C0.349559 10.5717 1.99047 7.06795 4.64947 4.51373C7.30847 1.9595 10.7911 0.541645 14.4059 0.541656H15.1566C18.7714 0.541645 22.254 1.9595 24.9131 4.51373C27.5721 7.06795 29.213 10.5717 29.51 14.3294C29.8405 18.515 28.6008 22.6711 26.052 25.9223L17.7232 36.5454C17.3667 37 16.9179 37.3664 16.4091 37.6179C15.9003 37.8695 15.3443 38 14.7813 38C14.2182 38 13.6622 37.8695 13.1534 37.6179C12.6446 37.3664 12.1958 37 11.8393 36.5454L3.51056 25.9223C0.961558 22.6712 -0.278169 18.5151 0.0525406 14.3294ZM14.4059 3.26042C11.4457 3.26089 8.5939 4.42229 6.41654 6.5141C4.23918 8.6059 2.89547 11.4752 2.65213 14.5524C2.37688 18.0358 3.40853 21.4946 5.52976 24.2004L13.8585 34.8253C13.9705 34.9682 14.1115 35.0834 14.2714 35.1625C14.4313 35.2416 14.606 35.2826 14.783 35.2826C14.96 35.2826 15.1347 35.2416 15.2946 35.1625C15.4545 35.0834 15.5955 34.9682 15.7075 34.8253L24.0362 24.2004C26.1562 21.4941 27.1866 18.0353 26.9104 14.5524C26.667 11.4749 25.3231 8.60533 23.1453 6.51348C20.9676 4.42164 18.1154 3.26044 15.1549 3.26042H14.4059Z" fill="#0F6F24"/>
</svg>
