<svg width="334" height="469" viewBox="0 0 334 469" fill="none" xmlns="http://www.w3.org/2000/svg">
<path d="M167 0C74.7 0 0 74.66 0 167C0 259.3 74.7 334 167 334C259.3 334 334 259.3 334 167C334 74.66 259.3 0 167 0ZM296.8 111.3C300.868 111.465 304.659 114.537 307.34 119.843C310.021 125.149 311.373 132.254 311.1 139.6C310.818 146.948 308.933 153.929 305.858 159.01C302.783 164.091 298.77 166.857 294.7 166.7C290.632 166.535 286.841 163.463 284.16 158.157C281.479 152.851 280.127 145.746 280.4 138.4C280.682 131.052 282.567 124.071 285.642 118.99C288.717 113.909 292.73 111.143 296.8 111.3ZM247.4 137.1C249.253 137.127 250.969 137.565 252.5 138.4C254.711 139.598 256.5 141.603 257.767 144.302C259.034 147.001 259.753 150.34 259.883 154.128C260.013 157.917 259.551 162.081 258.525 166.383C257.498 170.685 255.927 175.04 253.9 179.2C249.818 187.581 244.138 194.664 238.103 198.9C232.068 203.136 226.17 204.179 221.7 201.8C219.475 200.619 217.671 198.626 216.391 195.935C215.111 193.243 214.38 189.907 214.241 186.116C214.102 182.326 214.556 178.156 215.579 173.846C216.601 169.536 218.172 165.171 220.2 161C223.568 154.07 228.051 147.98 232.964 143.663C237.877 139.347 242.947 137.041 247.4 137.1ZM286.3 192.2C286.706 192.176 287.107 192.176 287.5 192.2C288.555 192.231 289.56 192.432 290.5 192.8C294.252 194.371 296.739 198.57 297.413 204.474C298.088 210.379 296.897 217.508 294.1 224.3C292.711 227.674 290.968 230.863 288.969 233.684C286.971 236.506 284.757 238.905 282.453 240.744C280.15 242.583 277.802 243.826 275.545 244.402C273.288 244.978 271.166 244.875 269.3 244.1C265.547 242.529 263.061 238.33 262.387 232.426C261.712 226.521 262.903 219.392 265.7 212.6C268.014 206.992 271.282 201.961 275.002 198.277C278.722 194.592 282.691 192.458 286.3 192.2ZM199 222.1C204.874 222.19 209.315 224.235 211.6 227.9C212.923 230.039 213.478 232.671 213.234 235.643C212.99 238.616 211.951 241.871 210.177 245.224C208.404 248.576 205.929 251.96 202.896 255.182C199.863 258.404 196.33 261.4 192.5 264C184.788 269.245 176.331 272.569 168.983 273.244C161.635 273.919 155.996 271.889 153.3 267.6C151.977 265.461 151.422 262.829 151.666 259.857C151.91 256.884 152.949 253.629 154.723 250.276C156.496 246.924 158.971 243.54 162.004 240.318C165.037 237.096 168.57 234.1 172.4 231.5C176.778 228.517 181.443 226.123 186.048 224.496C190.653 222.868 195.08 222.05 199 222.1ZM238.2 259.3C238.677 259.28 239.144 259.28 239.6 259.3C242.755 259.407 245.333 260.438 247.1 262.3C248.504 263.754 249.375 265.692 249.662 268.002C249.95 270.313 249.648 272.951 248.775 275.765C247.902 278.58 246.474 281.515 244.574 284.404C242.674 287.293 240.338 290.078 237.7 292.6C235.06 295.12 232.17 297.326 229.197 299.093C226.224 300.859 223.225 302.151 220.374 302.894C217.522 303.637 214.873 303.817 212.578 303.423C210.283 303.03 208.388 302.07 207 300.6C205.596 299.146 204.725 297.208 204.438 294.898C204.15 292.587 204.452 289.949 205.325 287.135C206.198 284.32 207.626 281.385 209.526 278.496C211.427 275.607 213.762 272.822 216.4 270.3C219.77 267.085 223.533 264.392 227.343 262.47C231.153 260.548 234.887 259.457 238.2 259.3ZM104.4 341.1C135 387.5 135 406 135 469H199C199 406 199 387.5 229.6 341.1C210.1 348.2 189 352 167 352C145 352 123.9 348.2 104.4 341.1Z" fill="#8F6C26"/>
</svg>
